<mxfile host="app.diagrams.net" agent="Mozilla/5.0 (X11; Linux x86_64) AppleWebKit/537.36 (KHTML, like Gecko) Chrome/137.0.0.0 Safari/537.36" version="28.2.3">
  <diagram name="Page-1" id="NQ5vVxnQwNbURHz8D4Kz">
    <mxGraphModel dx="1356" dy="764" grid="1" gridSize="10" guides="1" tooltips="1" connect="1" arrows="1" fold="1" page="1" pageScale="1" pageWidth="850" pageHeight="1100" math="0" shadow="0">
      <root>
        <mxCell id="0" />
        <mxCell id="1" parent="0" />
        <mxCell id="RgeUntL6BJOpKx8Ywikl-1" value="" style="strokeWidth=2;html=1;shape=mxgraph.flowchart.start_2;whiteSpace=wrap;" vertex="1" parent="1">
          <mxGeometry x="390" y="30" width="100" height="100" as="geometry" />
        </mxCell>
        <mxCell id="RgeUntL6BJOpKx8Ywikl-9" style="edgeStyle=orthogonalEdgeStyle;rounded=0;orthogonalLoop=1;jettySize=auto;html=1;exitX=1;exitY=0.5;exitDx=0;exitDy=0;exitPerimeter=0;" edge="1" parent="1" source="RgeUntL6BJOpKx8Ywikl-3" target="RgeUntL6BJOpKx8Ywikl-5">
          <mxGeometry relative="1" as="geometry">
            <mxPoint x="650" y="410" as="sourcePoint" />
          </mxGeometry>
        </mxCell>
        <mxCell id="RgeUntL6BJOpKx8Ywikl-11" value="true" style="edgeLabel;html=1;align=center;verticalAlign=middle;resizable=0;points=[];" vertex="1" connectable="0" parent="RgeUntL6BJOpKx8Ywikl-9">
          <mxGeometry x="-0.15" y="5" relative="1" as="geometry">
            <mxPoint as="offset" />
          </mxGeometry>
        </mxCell>
        <mxCell id="RgeUntL6BJOpKx8Ywikl-3" value="" style="strokeWidth=2;html=1;shape=mxgraph.flowchart.decision;whiteSpace=wrap;" vertex="1" parent="1">
          <mxGeometry x="390" y="320" width="100" height="100" as="geometry" />
        </mxCell>
        <mxCell id="RgeUntL6BJOpKx8Ywikl-8" style="edgeStyle=orthogonalEdgeStyle;rounded=0;orthogonalLoop=1;jettySize=auto;html=1;" edge="1" parent="1" source="RgeUntL6BJOpKx8Ywikl-4" target="RgeUntL6BJOpKx8Ywikl-3">
          <mxGeometry relative="1" as="geometry" />
        </mxCell>
        <mxCell id="RgeUntL6BJOpKx8Ywikl-4" value="signin" style="shape=parallelogram;html=1;strokeWidth=2;perimeter=parallelogramPerimeter;whiteSpace=wrap;rounded=1;arcSize=12;size=0.23;" vertex="1" parent="1">
          <mxGeometry x="380" y="190" width="100" height="60" as="geometry" />
        </mxCell>
        <mxCell id="RgeUntL6BJOpKx8Ywikl-5" value="" style="strokeWidth=2;html=1;shape=mxgraph.flowchart.document2;whiteSpace=wrap;size=0.25;" vertex="1" parent="1">
          <mxGeometry x="380" y="510" width="100" height="60" as="geometry" />
        </mxCell>
        <mxCell id="RgeUntL6BJOpKx8Ywikl-6" style="edgeStyle=orthogonalEdgeStyle;rounded=0;orthogonalLoop=1;jettySize=auto;html=1;entryX=0.6;entryY=0;entryDx=0;entryDy=0;entryPerimeter=0;exitX=0;exitY=0.5;exitDx=0;exitDy=0;exitPerimeter=0;" edge="1" parent="1" source="RgeUntL6BJOpKx8Ywikl-3" target="RgeUntL6BJOpKx8Ywikl-4">
          <mxGeometry relative="1" as="geometry">
            <Array as="points">
              <mxPoint x="390" y="360" />
              <mxPoint x="320" y="360" />
              <mxPoint x="320" y="280" />
              <mxPoint x="260" y="280" />
              <mxPoint x="260" y="170" />
              <mxPoint x="440" y="170" />
            </Array>
          </mxGeometry>
        </mxCell>
        <mxCell id="RgeUntL6BJOpKx8Ywikl-10" value="false" style="edgeLabel;html=1;align=center;verticalAlign=middle;resizable=0;points=[];" vertex="1" connectable="0" parent="RgeUntL6BJOpKx8Ywikl-6">
          <mxGeometry x="-0.8113" y="2" relative="1" as="geometry">
            <mxPoint as="offset" />
          </mxGeometry>
        </mxCell>
      </root>
    </mxGraphModel>
  </diagram>
</mxfile>
